<svg xmlns="http://www.w3.org/2000/svg" width="900" height="700" viewBox="0 0 900 700" style="font-family: 'Noto Serif', 'Georgia', serif; background: #0a0a0a; font-variant-emoji: text;">
<defs>

            <filter id="glow" x="-50%" y="-50%" width="200%" height="200%">
                <feGaussianBlur stdDeviation="2.5" result="coloredBlur"/>
                <feMerge>
                    <feMergeNode in="coloredBlur"/>
                    <feMergeNode in="SourceGraphic"/>
                </feMerge>
            </filter>
            

            <radialGradient id="vignette" cx="50%" cy="50%" r="70%">
                <stop offset="60%" stop-color="black" stop-opacity="0"/>
                <stop offset="100%" stop-color="black" stop-opacity="0.5"/>
            </radialGradient>
            
</defs>
<rect width="900" height="700" fill="#0a0a0a"/>
<circle cx="654" cy="114" r="0.4" fill="#ffffff" opacity="0.5"/>
<circle cx="250" cy="228" r="0.7" fill="#ffffff" opacity="0.2"/>
<circle cx="692" cy="558" r="0.4" fill="#ffffff" opacity="0.7"/>
<circle cx="32" cy="30" r="0.4" fill="#ffffff" opacity="0.35"/>
<circle cx="238" cy="517" r="0.4" fill="#ffffff" opacity="0.35"/>
<circle cx="733" cy="665" r="1.3" fill="#ffffff" opacity="0.35"/>
<circle cx="459" cy="603" r="1.0" fill="#ffffff" opacity="0.2"/>
<circle cx="777" cy="163" r="1.3" fill="#ffffff" opacity="0.5"/>
<circle cx="284" cy="159" r="0.7" fill="#ffffff" opacity="0.5"/>
<circle cx="104" cy="94" r="1.3" fill="#ffffff" opacity="0.2"/>
<circle cx="367" cy="352" r="1.0" fill="#ffffff" opacity="0.2"/>
<circle cx="747" cy="470" r="0.4" fill="#ffffff" opacity="0.7"/>
<circle cx="80" cy="565" r="1.0" fill="#ffffff" opacity="0.5"/>
<circle cx="591" cy="196" r="0.4" fill="#ffffff" opacity="0.2"/>
<circle cx="677" cy="233" r="1.0" fill="#ffffff" opacity="0.2"/>
<circle cx="875" cy="238" r="0.4" fill="#ffffff" opacity="0.7"/>
<circle cx="284" cy="464" r="1.0" fill="#ffffff" opacity="0.35"/>
<circle cx="379" cy="363" r="0.7" fill="#ffffff" opacity="0.5"/>
<circle cx="718" cy="699" r="0.4" fill="#ffffff" opacity="0.35"/>
<circle cx="546" cy="250" r="0.7" fill="#ffffff" opacity="0.7"/>
<circle cx="388" cy="276" r="0.7" fill="#ffffff" opacity="0.5"/>
<circle cx="863" cy="57" r="0.7" fill="#ffffff" opacity="0.2"/>
<circle cx="824" cy="323" r="1.3" fill="#ffffff" opacity="0.5"/>
<circle cx="67" cy="216" r="1.0" fill="#ffffff" opacity="0.35"/>
<circle cx="671" cy="511" r="1.3" fill="#ffffff" opacity="0.7"/>
<circle cx="146" cy="271" r="0.7" fill="#ffffff" opacity="0.35"/>
<circle cx="762" cy="574" r="1.0" fill="#ffffff" opacity="0.7"/>
<circle cx="597" cy="408" r="1.0" fill="#ffffff" opacity="0.35"/>
<circle cx="141" cy="521" r="1.3" fill="#ffffff" opacity="0.2"/>
<circle cx="773" cy="48" r="0.4" fill="#ffffff" opacity="0.35"/>
<circle cx="642" cy="163" r="1.3" fill="#ffffff" opacity="0.2"/>
<circle cx="394" cy="390" r="1.3" fill="#ffffff" opacity="0.5"/>
<circle cx="566" cy="11" r="0.4" fill="#ffffff" opacity="0.5"/>
<circle cx="787" cy="656" r="1.0" fill="#ffffff" opacity="0.2"/>
<circle cx="300" cy="445" r="0.7" fill="#ffffff" opacity="0.7"/>
<circle cx="3" cy="269" r="0.7" fill="#ffffff" opacity="0.2"/>
<circle cx="891" cy="640" r="1.0" fill="#ffffff" opacity="0.35"/>
<circle cx="156" cy="382" r="0.7" fill="#ffffff" opacity="0.2"/>
<circle cx="613" cy="331" r="1.3" fill="#ffffff" opacity="0.2"/>
<circle cx="114" cy="371" r="1.0" fill="#ffffff" opacity="0.35"/>
<circle cx="59" cy="246" r="0.4" fill="#ffffff" opacity="0.2"/>
<circle cx="749" cy="497" r="0.4" fill="#ffffff" opacity="0.35"/>
<circle cx="131" cy="675" r="1.3" fill="#ffffff" opacity="0.35"/>
<circle cx="271" cy="540" r="1.3" fill="#ffffff" opacity="0.35"/>
<circle cx="552" cy="205" r="1.0" fill="#ffffff" opacity="0.7"/>
<circle cx="687" cy="665" r="1.0" fill="#ffffff" opacity="0.7"/>
<circle cx="529" cy="462" r="0.4" fill="#ffffff" opacity="0.35"/>
<circle cx="230" cy="65" r="1.0" fill="#ffffff" opacity="0.2"/>
<circle cx="602" cy="567" r="0.7" fill="#ffffff" opacity="0.35"/>
<circle cx="7" cy="72" r="0.4" fill="#ffffff" opacity="0.35"/>
<circle cx="69" cy="32" r="1.0" fill="#ffffff" opacity="0.2"/>
<circle cx="526" cy="243" r="1.0" fill="#ffffff" opacity="0.7"/>
<circle cx="219" cy="552" r="0.7" fill="#ffffff" opacity="0.7"/>
<circle cx="248" cy="484" r="1.3" fill="#ffffff" opacity="0.35"/>
<circle cx="96" cy="99" r="1.3" fill="#ffffff" opacity="0.5"/>
<circle cx="433" cy="420" r="1.3" fill="#ffffff" opacity="0.2"/>
<circle cx="689" cy="669" r="0.4" fill="#ffffff" opacity="0.2"/>
<circle cx="412" cy="347" r="0.4" fill="#ffffff" opacity="0.35"/>
<circle cx="196" cy="194" r="1.3" fill="#ffffff" opacity="0.35"/>
<circle cx="432" cy="187" r="1.0" fill="#ffffff" opacity="0.7"/>
<circle cx="255" cy="77" r="1.3" fill="#ffffff" opacity="0.2"/>
<circle cx="51" cy="667" r="0.4" fill="#ffffff" opacity="0.2"/>
<circle cx="771" cy="242" r="0.7" fill="#ffffff" opacity="0.7"/>
<circle cx="497" cy="492" r="0.7" fill="#ffffff" opacity="0.7"/>
<circle cx="60" cy="168" r="1.3" fill="#ffffff" opacity="0.2"/>
<circle cx="399" cy="271" r="1.3" fill="#ffffff" opacity="0.5"/>
<circle cx="433" cy="569" r="1.3" fill="#ffffff" opacity="0.35"/>
<circle cx="194" cy="303" r="0.7" fill="#ffffff" opacity="0.2"/>
<circle cx="593" cy="555" r="0.4" fill="#ffffff" opacity="0.5"/>
<circle cx="58" cy="51" r="1.3" fill="#ffffff" opacity="0.35"/>
<circle cx="58" cy="520" r="0.4" fill="#ffffff" opacity="0.35"/>
<circle cx="70" cy="609" r="0.4" fill="#ffffff" opacity="0.35"/>
<circle cx="413" cy="122" r="0.7" fill="#ffffff" opacity="0.2"/>
<circle cx="634" cy="83" r="1.3" fill="#ffffff" opacity="0.5"/>
<circle cx="267" cy="209" r="1.0" fill="#ffffff" opacity="0.35"/>
<circle cx="271" cy="405" r="0.7" fill="#ffffff" opacity="0.5"/>
<circle cx="468" cy="323" r="0.4" fill="#ffffff" opacity="0.2"/>
<circle cx="469" cy="636" r="0.4" fill="#ffffff" opacity="0.2"/>
<circle cx="550" cy="218" r="1.0" fill="#ffffff" opacity="0.35"/>
<circle cx="357" cy="70" r="0.7" fill="#ffffff" opacity="0.5"/>
<circle cx="291" cy="161" r="1.3" fill="#ffffff" opacity="0.5"/>
<circle cx="626" cy="669" r="0.4" fill="#ffffff" opacity="0.5"/>
<circle cx="679" cy="106" r="0.7" fill="#ffffff" opacity="0.5"/>
<circle cx="118" cy="109" r="0.7" fill="#ffffff" opacity="0.5"/>
<circle cx="288" cy="619" r="0.7" fill="#ffffff" opacity="0.5"/>
<circle cx="208" cy="649" r="1.0" fill="#ffffff" opacity="0.7"/>
<circle cx="257" cy="52" r="0.4" fill="#ffffff" opacity="0.7"/>
<circle cx="849" cy="283" r="0.4" fill="#ffffff" opacity="0.2"/>
<circle cx="341" cy="133" r="1.0" fill="#ffffff" opacity="0.35"/>
<circle cx="759" cy="452" r="1.3" fill="#ffffff" opacity="0.2"/>
<circle cx="114" cy="77" r="0.7" fill="#ffffff" opacity="0.2"/>
<circle cx="854" cy="378" r="0.7" fill="#ffffff" opacity="0.7"/>
<circle cx="130" cy="42" r="1.0" fill="#ffffff" opacity="0.5"/>
<circle cx="815" cy="40" r="1.0" fill="#ffffff" opacity="0.35"/>
<circle cx="698" cy="255" r="0.4" fill="#ffffff" opacity="0.5"/>
<circle cx="798" cy="573" r="1.3" fill="#ffffff" opacity="0.35"/>
<circle cx="242" cy="166" r="0.7" fill="#ffffff" opacity="0.7"/>
<circle cx="25" cy="183" r="1.0" fill="#ffffff" opacity="0.7"/>
<circle cx="821" cy="685" r="0.7" fill="#ffffff" opacity="0.5"/>
<circle cx="163" cy="110" r="1.3" fill="#ffffff" opacity="0.2"/>
<rect width="900" height="700" fill="url(#vignette)" style="mix-blend-mode: multiply;" pointer-events="none"/>
<path d="M 650.00 350.00 A 310.0 310.0 0 0 1 608.47 195.00 L 556.51 225.00 A 250.0 250.0 0 0 0 590.00 350.00 Z" fill="#140f08" stroke="#2a200c" stroke-width="0.5"/>
<path d="M 608.47 195.00 A 310.0 310.0 0 0 1 495.00 81.53 L 465.00 133.49 A 250.0 250.0 0 0 0 556.51 225.00 Z" fill="#1a1208" stroke="#2a200c" stroke-width="0.5"/>
<path d="M 495.00 81.53 A 310.0 310.0 0 0 1 340.00 40.00 L 340.00 100.00 A 250.0 250.0 0 0 0 465.00 133.49 Z" fill="#0f1408" stroke="#2a200c" stroke-width="0.5"/>
<path d="M 340.00 40.00 A 310.0 310.0 0 0 1 185.00 81.53 L 215.00 133.49 A 250.0 250.0 0 0 0 340.00 100.00 Z" fill="#081408" stroke="#2a200c" stroke-width="0.5"/>
<path d="M 185.00 81.53 A 310.0 310.0 0 0 1 71.53 195.00 L 123.49 225.00 A 250.0 250.0 0 0 0 215.00 133.49 Z" fill="#08140f" stroke="#2a200c" stroke-width="0.5"/>
<path d="M 71.53 195.00 A 310.0 310.0 0 0 1 30.00 350.00 L 90.00 350.00 A 250.0 250.0 0 0 0 123.49 225.00 Z" fill="#0a1014" stroke="#2a200c" stroke-width="0.5"/>
<path d="M 30.00 350.00 A 310.0 310.0 0 0 1 71.53 505.00 L 123.49 475.00 A 250.0 250.0 0 0 0 90.00 350.00 Z" fill="#100a14" stroke="#2a200c" stroke-width="0.5"/>
<path d="M 71.53 505.00 A 310.0 310.0 0 0 1 185.00 618.47 L 215.00 566.51 A 250.0 250.0 0 0 0 123.49 475.00 Z" fill="#140a10" stroke="#2a200c" stroke-width="0.5"/>
<path d="M 185.00 618.47 A 310.0 310.0 0 0 1 340.00 660.00 L 340.00 600.00 A 250.0 250.0 0 0 0 215.00 566.51 Z" fill="#0f0814" stroke="#2a200c" stroke-width="0.5"/>
<path d="M 340.00 660.00 A 310.0 310.0 0 0 1 495.00 618.47 L 465.00 566.51 A 250.0 250.0 0 0 0 340.00 600.00 Z" fill="#140f08" stroke="#2a200c" stroke-width="0.5"/>
<path d="M 495.00 618.47 A 310.0 310.0 0 0 1 608.47 505.00 L 556.51 475.00 A 250.0 250.0 0 0 0 465.00 566.51 Z" fill="#081014" stroke="#2a200c" stroke-width="0.5"/>
<path d="M 608.47 505.00 A 310.0 310.0 0 0 1 650.00 350.00 L 590.00 350.00 A 250.0 250.0 0 0 0 556.51 475.00 Z" fill="#140810" stroke="#2a200c" stroke-width="0.5"/>
<g transform="translate(599.5,266.5) scale(0.917)" fill="#8a7a5a" opacity="0.85"><path d="M7,2 C4.239,2 2,4.239 2,7 L4,7 C4,5.343 5.343,4 7,4 C8.657,4 10,5.343 10,7 L12,7 C12,4.239 9.761,2 7,2"/><path d="M17,2 C14.239,2 12,4.239 12,7 L14,7 C14,5.343 15.343,4 17,4 C18.657,4 20,5.343 20,7 L22,7 C22,4.239 19.761,2 17,2"/><path d="M13 22 L11 22 L10 9 L14 9 Z"/></g>
<g transform="translate(527.0,141.0) scale(0.917)" fill="#8a7a5a" opacity="0.85"><path d="M12,20 C9.791,20 8,18.209 8,16 C8,13.791 9.791,12 12,12 C14.209,12 16,13.791 16,16 C16,18.209 14.209,20 12,20 M12,10 C8.686,10 6,12.686 6,16 C6,19.314 8.686,22 12,22 C15.314,22 18,19.314 18,16 C18,12.686 15.314,10 12,10"/><path d="M20,3 C20,7.418 16.418,11 12,11 C7.582,11 4,7.418 4,3 L2,3 C2,7.734 5.293,11.69 9.711,12.726 C10.36,12.272 11.147,12 12,12 C12.853,12 13.64,12.272 14.289,12.726 C18.707,11.69 22,7.734 22,3 L20,3 Z"/></g>
<g transform="translate(401.5,68.5) scale(0.917)" fill="#8a7a5a" opacity="0.85"><path d="M8.9864,5.5221 C8.2824,5.2991 7.6134,5.0021 6.9864,4.6361 L6.9864,19.3641 C7.6134,18.9981 8.2824,18.7011 8.9864,18.4781 L8.9864,5.5221 Z"/><path d="M14.9864,18.4779 C15.6904,18.7009 16.3594,18.9979 16.9864,19.3639 L16.9864,4.6359 C16.3594,5.0019 15.6904,5.2989 14.9864,5.5219 L14.9864,18.4779 Z"/><path d="M16.9864,19.3639 C16.3594,18.9979 15.6904,18.7009 14.9864,18.4779 C14.0384,18.1779 13.0354,17.9999 11.9864,17.9999 C10.9374,17.9999 9.9344,18.1779 8.9864,18.4779 C8.2824,18.7009 7.6134,18.9979 6.9864,19.3639 C5.8254,20.0409 4.8044,20.9309 4.0004,21.9999 L6.7124,21.9999 C8.1224,20.7589 9.9654,19.9999 11.9864,19.9999 C14.0074,19.9999 15.8504,20.7589 17.2604,21.9999 L19.9724,21.9999 C19.1684,20.9309 18.1474,20.0409 16.9864,19.3639"/><path d="M11.9864,6 C13.0354,6 14.0384,5.822 14.9864,5.522 C15.6904,5.299 16.3594,5.002 16.9864,4.636 C18.1474,3.96 19.1684,3.069 19.9724,2 L17.2604,2 C15.8504,3.241 14.0074,4 11.9864,4 C9.9654,4 8.1224,3.241 6.7124,2 L4.0004,2 C4.8044,3.069 5.8254,3.96 6.9864,4.636 C7.6134,5.002 8.2824,5.299 8.9864,5.522 C9.9344,5.822 10.9374,6 11.9864,6"/></g>
<g transform="translate(256.5,68.5) scale(0.917)" fill="#8a7a5a" opacity="0.85"><path d="M18,8 C15.791,8 14,9.791 14,12 C14,14.209 15.791,16 18,16 C20.209,16 22,14.209 22,12 C22,9.791 20.209,8 18,8 M18,10 C19.103,10 20,10.897 20,12 C20,13.103 19.103,14 18,14 C16.897,14 16,13.103 16,12 C16,10.897 16.897,10 18,10"/><path d="M6,8 C3.791,8 2,9.791 2,12 C2,14.209 3.791,16 6,16 C8.209,16 10,14.209 10,12 C10,9.791 8.209,8 6,8 M6,10 C7.103,10 8,10.897 8,12 C8,13.103 7.103,14 6,14 C4.897,14 4,13.103 4,12 C4,10.897 4.897,10 6,10"/><path d="M12,4 C14.206,4 16.206,4.897 17.654,6.346 L19.073,4.931 C17.263,3.12 14.763,2 12,2 C6.477,2 2,6.477 2,12 L4,12 C4,7.589 7.589,4 12,4"/><path d="M12,20 C9.786,20 7.781,19.095 6.331,17.638 L4.912,19.052 C6.723,20.872 9.229,22 12,22 C17.523,22 22,17.523 22,12 L20,12 C20,16.411 16.411,20 12,20"/></g>
<g transform="translate(131.0,141.0) scale(0.917)" fill="#8a7a5a" opacity="0.85"><path d="M6,9 C3.791,9 2,10.791 2,13 C2,15.209 3.791,17 6,17 C8.209,17 10,15.209 10,13 C10,10.791 8.209,9 6,9 M6,11 C7.103,11 8,11.897 8,13 C8,14.103 7.103,15 6,15 C4.897,15 4,14.103 4,13 C4,11.897 4.897,11 6,11"/><path d="M20,18 C20,19 19.103,20 18,20 C16.897,20 16,19.103 16,18 L16,8 C16,4.686 13.314,2 10,2 C6.686,2 4,4.686 4,8 C4,8.933 4.223,9.811 4.603,10.598 L6.295,9.47 C6.111,9.014 6,8.522 6,8 C6,5.794 7.794,4 10,4 C12.206,4 14,5.794 14,8 L14,18 C14,20.209 15.791,22 18,22 C20.209,22 22,20 22,18 L20,18 Z"/></g>
<g transform="translate(58.5,266.5) scale(0.917)" fill="#8a7a5a" opacity="0.85"><path d="M6,2 C3.791,2 2,3.791 2,6 L2,15 L4,15 L4,6 C4,4.897 4.897,4 6,4 C7.103,4 8,4.897 8,6 L10,6 C10,3.791 8.209,2 6,2"/><path d="M12,2 C9.791,2 8,3.791 8,6 L8,15 L10,15 L10,6 C10,4.897 10.897,4 12,4 C13.103,4 14,4.897 14,6 L14,22 L16,22 L16,6 C16,3.791 14.209,2 12,2"/><path d="M18,11 C15.791,11 14,12.791 14,15 L16,15 C16,13.897 16.897,13 18,13 C19.103,13 20,13.897 20,15 C20,16.103 19.103,17 18,17 L18,19 C20.209,19 22,17.209 22,15 C22,12.791 20.209,11 18,11"/><path d="M12 19 L18 19 L18 17 L12 17 Z"/></g>
<g transform="translate(58.5,411.5) scale(0.917)" fill="#8a7a5a" opacity="0.85"><path d="M2 22 L22 22 L22 20 L2 20 Z"/><path d="M17.2736,16 C18.9426,14.537 19.9996,12.395 19.9996,10 C19.9996,5.582 16.4186,2 11.9996,2 C7.5816,2 3.9996,5.582 3.9996,10 C3.9996,12.395 5.0576,14.537 6.7266,16 L1.9996,16 L1.9996,18 L9.9996,18 L9.9996,17.738 L9.9996,16 L9.9996,15.65 C7.6736,14.824 5.9996,12.606 5.9996,10 C5.9996,6.692 8.6916,4 11.9996,4 C15.3086,4 17.9996,6.692 17.9996,10 C17.9996,12.606 16.3266,14.824 13.9996,15.65 L13.9996,16 L13.9996,17.738 L13.9996,18 L21.9996,18 L21.9996,16 L17.2736,16 Z"/></g>
<g transform="translate(131.0,537.0) scale(0.917)" fill="#8a7a5a" opacity="0.85"><path d="M6,2 C3.791,2 2,3.791 2,6 L2,15 L4,15 L4,6 C4,4.897 4.897,4 6,4 C7.103,4 8,4.897 8,6 L10,6 C10,3.791 8.209,2 6,2"/><path d="M22,20 L19,18 L19,19 L18,19 C16.897,19 16,18.103 16,17 L16,6 C16,3.791 14.209,2 12,2 C9.791,2 8,3.791 8,6 L8,15 L10,15 L10,6 C10,4.897 10.897,4 12,4 C13.103,4 14,4.897 14,6 L14,17 C14,19.209 15.791,21 18,21 L19,21 L19,22 L22,20 Z"/></g>
<g transform="translate(256.5,609.5) scale(0.917)" fill="#8a7a5a" opacity="0.85"><path d="M2 19.7785 L3.414 21.1925 L20.385 4.2215 L18.97 2.8075 Z"/><path d="M14.0208 16.2426 L6.9498 9.1716 L8.3638 7.7576 L15.4348 14.8286 Z"/><path d="M11.1926 1.9999 L11.1926 3.9999 L19.1926 3.9999 L19.1926 11.9999 L21.1926 11.9999 L21.1926 1.9999 Z"/></g>
<g transform="translate(401.5,609.5) scale(0.917)" fill="#8a7a5a" opacity="0.85"><path d="M6,2 C3.791,2 2,3.791 2,6 L4,6 C4,4.897 4.897,4 6,4 C7.103,4 8,4.897 8,6 L10,6 C10,3.791 8.209,2 6,2"/><path d="M12,2 C9.791,2 8,3.791 8,6 L8,13 L10,13 L10,6 C10,4.897 10.897,4 12,4 C13.103,4 14,4.897 14,6 L14,18 L16,18 L16,6 C16,3.791 14.209,2 12,2"/><path d="M12,22 L10,22 L10,20 L12,20 C13.103,20 14,19 14,18 L16,18 C16,20 14.209,22 12,22 Z"/><path d="M18,14 C15.791,14 14,15.791 14,18 C14,20.209 15.791,22 18,22 C20.209,22 22,20.209 22,18 C22,15.791 20.209,14 18,14 M18,16 C19.103,16 20,16.897 20,18 C20,19.103 19.103,20 18,20 C16.897,20 16,19.103 16,18 C16,16.897 16.897,16 18,16"/></g>
<g transform="translate(527.0,537.0) scale(0.917)" fill="#8a7a5a" opacity="0.85"><path d="M12,17 C14.209,17 16,15 16,13 L14,13 C14,14 13.103,15 12,15 C10.897,15 10,14.103 10,13 L8,13 C8,15.209 9.791,17 12,17"/><path d="M18,17 C20.209,17 22,15 22,13 L20,13 C20,14 19.103,15 18,15 C16.897,15 16,14.103 16,13 L14,13 C14,15.209 15.791,17 18,17"/><path d="M6,17 C8.209,17 10,15 10,13 L8,13 C8,14 7.103,15 6,15 C4.897,15 4,14.103 4,13 L2,13 C2,15.209 3.791,17 6,17"/><path d="M12,11 C14.209,11 16,9 16,7 L14,7 C14,8 13.103,9 12,9 C10.897,9 10,8.103 10,7 L8,7 C8,9.209 9.791,11 12,11"/><path d="M18,11 C20.209,11 22,9 22,7 L20,7 C20,8 19.103,9 18,9 C16.897,9 16,8.103 16,7 L14,7 C14,9.209 15.791,11 18,11"/><path d="M6,11 C8.209,11 10,9 10,7 L8,7 C8,8 7.103,9 6,9 C4.897,9 4,8.103 4,7 L2,7 C2,9.209 3.791,11 6,11"/></g>
<g transform="translate(599.5,411.5) scale(0.917)" fill="#8a7a5a" opacity="0.85"><path d="M5 13.7993 L19 13.7993 L19 11.7993 L5 11.7993 Z"/><path d="M10,12.7992 C10,7.9612 6.564,3.9272 2,3.0002 L2,4.9642 C5.498,5.8582 8.095,9.0272 8.095,12.7992 C8.095,16.5712 5.498,19.7402 2,20.6342 L2,22.5982 C6.564,21.6712 10,17.6372 10,12.7992"/><path d="M14,12.7992 C14,17.6372 17,21.6712 22,22.5982 L22,20.6342 C19,19.7402 15.905,16.5712 15.905,12.7992 C15.905,9.0272 18.502,5.8582 22,4.9642 L22,3.0002 C17.436,3.9272 14,7.9612 14,12.7992"/></g>
<circle cx="340" cy="350" r="310" fill="none" stroke="#3a3020" stroke-width="0.5"/>
<circle cx="340" cy="350" r="250" fill="none" stroke="#3a3020" stroke-width="0.5"/>
<line x1="650.0" y1="350.0" x2="644.0" y2="350.0" stroke="#d4af37" stroke-width="1.0" opacity="0.6"/>
<line x1="648.8" y1="323.0" x2="645.8" y2="323.2" stroke="#3a3020" stroke-width="0.5" opacity="0.6"/>
<line x1="645.3" y1="296.2" x2="639.4" y2="297.2" stroke="#3a3020" stroke-width="0.5" opacity="0.6"/>
<line x1="639.4" y1="269.8" x2="636.5" y2="270.5" stroke="#3a3020" stroke-width="0.5" opacity="0.6"/>
<line x1="631.3" y1="244.0" x2="625.7" y2="246.0" stroke="#3a3020" stroke-width="0.5" opacity="0.6"/>
<line x1="621.0" y1="219.0" x2="618.2" y2="220.3" stroke="#3a3020" stroke-width="0.5" opacity="0.6"/>
<line x1="608.5" y1="195.0" x2="603.3" y2="198.0" stroke="#d4af37" stroke-width="1.0" opacity="0.6"/>
<line x1="593.9" y1="172.2" x2="591.5" y2="173.9" stroke="#3a3020" stroke-width="0.5" opacity="0.6"/>
<line x1="577.5" y1="150.7" x2="572.9" y2="154.6" stroke="#3a3020" stroke-width="0.5" opacity="0.6"/>
<line x1="559.2" y1="130.8" x2="557.1" y2="132.9" stroke="#3a3020" stroke-width="0.5" opacity="0.6"/>
<line x1="539.3" y1="112.5" x2="535.4" y2="117.1" stroke="#3a3020" stroke-width="0.5" opacity="0.6"/>
<line x1="517.8" y1="96.1" x2="516.1" y2="98.5" stroke="#3a3020" stroke-width="0.5" opacity="0.6"/>
<line x1="495.0" y1="81.5" x2="492.0" y2="86.7" stroke="#d4af37" stroke-width="1.0" opacity="0.6"/>
<line x1="471.0" y1="69.0" x2="469.7" y2="71.8" stroke="#3a3020" stroke-width="0.5" opacity="0.6"/>
<line x1="446.0" y1="58.7" x2="444.0" y2="64.3" stroke="#3a3020" stroke-width="0.5" opacity="0.6"/>
<line x1="420.2" y1="50.6" x2="419.5" y2="53.5" stroke="#3a3020" stroke-width="0.5" opacity="0.6"/>
<line x1="393.8" y1="44.7" x2="392.8" y2="50.6" stroke="#3a3020" stroke-width="0.5" opacity="0.6"/>
<line x1="367.0" y1="41.2" x2="366.8" y2="44.2" stroke="#3a3020" stroke-width="0.5" opacity="0.6"/>
<line x1="340.0" y1="40.0" x2="340.0" y2="46.0" stroke="#d4af37" stroke-width="1.0" opacity="0.6"/>
<line x1="313.0" y1="41.2" x2="313.2" y2="44.2" stroke="#3a3020" stroke-width="0.5" opacity="0.6"/>
<line x1="286.2" y1="44.7" x2="287.2" y2="50.6" stroke="#3a3020" stroke-width="0.5" opacity="0.6"/>
<line x1="259.8" y1="50.6" x2="260.5" y2="53.5" stroke="#3a3020" stroke-width="0.5" opacity="0.6"/>
<line x1="234.0" y1="58.7" x2="236.0" y2="64.3" stroke="#3a3020" stroke-width="0.5" opacity="0.6"/>
<line x1="209.0" y1="69.0" x2="210.3" y2="71.8" stroke="#3a3020" stroke-width="0.5" opacity="0.6"/>
<line x1="185.0" y1="81.5" x2="188.0" y2="86.7" stroke="#d4af37" stroke-width="1.0" opacity="0.6"/>
<line x1="162.2" y1="96.1" x2="163.9" y2="98.5" stroke="#3a3020" stroke-width="0.5" opacity="0.6"/>
<line x1="140.7" y1="112.5" x2="144.6" y2="117.1" stroke="#3a3020" stroke-width="0.5" opacity="0.6"/>
<line x1="120.8" y1="130.8" x2="122.9" y2="132.9" stroke="#3a3020" stroke-width="0.5" opacity="0.6"/>
<line x1="102.5" y1="150.7" x2="107.1" y2="154.6" stroke="#3a3020" stroke-width="0.5" opacity="0.6"/>
<line x1="86.1" y1="172.2" x2="88.5" y2="173.9" stroke="#3a3020" stroke-width="0.5" opacity="0.6"/>
<line x1="71.5" y1="195.0" x2="76.7" y2="198.0" stroke="#d4af37" stroke-width="1.0" opacity="0.6"/>
<line x1="59.0" y1="219.0" x2="61.8" y2="220.3" stroke="#3a3020" stroke-width="0.5" opacity="0.6"/>
<line x1="48.7" y1="244.0" x2="54.3" y2="246.0" stroke="#3a3020" stroke-width="0.5" opacity="0.6"/>
<line x1="40.6" y1="269.8" x2="43.5" y2="270.5" stroke="#3a3020" stroke-width="0.5" opacity="0.6"/>
<line x1="34.7" y1="296.2" x2="40.6" y2="297.2" stroke="#3a3020" stroke-width="0.5" opacity="0.6"/>
<line x1="31.2" y1="323.0" x2="34.2" y2="323.2" stroke="#3a3020" stroke-width="0.5" opacity="0.6"/>
<line x1="30.0" y1="350.0" x2="36.0" y2="350.0" stroke="#d4af37" stroke-width="1.0" opacity="0.6"/>
<line x1="31.2" y1="377.0" x2="34.2" y2="376.8" stroke="#3a3020" stroke-width="0.5" opacity="0.6"/>
<line x1="34.7" y1="403.8" x2="40.6" y2="402.8" stroke="#3a3020" stroke-width="0.5" opacity="0.6"/>
<line x1="40.6" y1="430.2" x2="43.5" y2="429.5" stroke="#3a3020" stroke-width="0.5" opacity="0.6"/>
<line x1="48.7" y1="456.0" x2="54.3" y2="454.0" stroke="#3a3020" stroke-width="0.5" opacity="0.6"/>
<line x1="59.0" y1="481.0" x2="61.8" y2="479.7" stroke="#3a3020" stroke-width="0.5" opacity="0.6"/>
<line x1="71.5" y1="505.0" x2="76.7" y2="502.0" stroke="#d4af37" stroke-width="1.0" opacity="0.6"/>
<line x1="86.1" y1="527.8" x2="88.5" y2="526.1" stroke="#3a3020" stroke-width="0.5" opacity="0.6"/>
<line x1="102.5" y1="549.3" x2="107.1" y2="545.4" stroke="#3a3020" stroke-width="0.5" opacity="0.6"/>
<line x1="120.8" y1="569.2" x2="122.9" y2="567.1" stroke="#3a3020" stroke-width="0.5" opacity="0.6"/>
<line x1="140.7" y1="587.5" x2="144.6" y2="582.9" stroke="#3a3020" stroke-width="0.5" opacity="0.6"/>
<line x1="162.2" y1="603.9" x2="163.9" y2="601.5" stroke="#3a3020" stroke-width="0.5" opacity="0.6"/>
<line x1="185.0" y1="618.5" x2="188.0" y2="613.3" stroke="#d4af37" stroke-width="1.0" opacity="0.6"/>
<line x1="209.0" y1="631.0" x2="210.3" y2="628.2" stroke="#3a3020" stroke-width="0.5" opacity="0.6"/>
<line x1="234.0" y1="641.3" x2="236.0" y2="635.7" stroke="#3a3020" stroke-width="0.5" opacity="0.6"/>
<line x1="259.8" y1="649.4" x2="260.5" y2="646.5" stroke="#3a3020" stroke-width="0.5" opacity="0.6"/>
<line x1="286.2" y1="655.3" x2="287.2" y2="649.4" stroke="#3a3020" stroke-width="0.5" opacity="0.6"/>
<line x1="313.0" y1="658.8" x2="313.2" y2="655.8" stroke="#3a3020" stroke-width="0.5" opacity="0.6"/>
<line x1="340.0" y1="660.0" x2="340.0" y2="654.0" stroke="#d4af37" stroke-width="1.0" opacity="0.6"/>
<line x1="367.0" y1="658.8" x2="366.8" y2="655.8" stroke="#3a3020" stroke-width="0.5" opacity="0.6"/>
<line x1="393.8" y1="655.3" x2="392.8" y2="649.4" stroke="#3a3020" stroke-width="0.5" opacity="0.6"/>
<line x1="420.2" y1="649.4" x2="419.5" y2="646.5" stroke="#3a3020" stroke-width="0.5" opacity="0.6"/>
<line x1="446.0" y1="641.3" x2="444.0" y2="635.7" stroke="#3a3020" stroke-width="0.5" opacity="0.6"/>
<line x1="471.0" y1="631.0" x2="469.7" y2="628.2" stroke="#3a3020" stroke-width="0.5" opacity="0.6"/>
<line x1="495.0" y1="618.5" x2="492.0" y2="613.3" stroke="#d4af37" stroke-width="1.0" opacity="0.6"/>
<line x1="517.8" y1="603.9" x2="516.1" y2="601.5" stroke="#3a3020" stroke-width="0.5" opacity="0.6"/>
<line x1="539.3" y1="587.5" x2="535.4" y2="582.9" stroke="#3a3020" stroke-width="0.5" opacity="0.6"/>
<line x1="559.2" y1="569.2" x2="557.1" y2="567.1" stroke="#3a3020" stroke-width="0.5" opacity="0.6"/>
<line x1="577.5" y1="549.3" x2="572.9" y2="545.4" stroke="#3a3020" stroke-width="0.5" opacity="0.6"/>
<line x1="593.9" y1="527.8" x2="591.5" y2="526.1" stroke="#3a3020" stroke-width="0.5" opacity="0.6"/>
<line x1="608.5" y1="505.0" x2="603.3" y2="502.0" stroke="#d4af37" stroke-width="1.0" opacity="0.6"/>
<line x1="621.0" y1="481.0" x2="618.2" y2="479.7" stroke="#3a3020" stroke-width="0.5" opacity="0.6"/>
<line x1="631.3" y1="456.0" x2="625.7" y2="454.0" stroke="#3a3020" stroke-width="0.5" opacity="0.6"/>
<line x1="639.4" y1="430.2" x2="636.5" y2="429.5" stroke="#3a3020" stroke-width="0.5" opacity="0.6"/>
<line x1="645.3" y1="403.8" x2="639.4" y2="402.8" stroke="#3a3020" stroke-width="0.5" opacity="0.6"/>
<line x1="648.8" y1="377.0" x2="645.8" y2="376.8" stroke="#3a3020" stroke-width="0.5" opacity="0.6"/>
<line x1="330.0" y1="349.2" x2="100.8" y2="329.8" stroke="#d4af37" stroke-width="1.5" opacity="0.9"/>
<line x1="330.8" y1="354.0" x2="120.0" y2="446.0" stroke="#8a7a4a" stroke-width="1.0" opacity="0.6"/>
<line x1="334.1" y1="358.1" x2="199.0" y2="544.2" stroke="#8a7a4a" stroke-width="1.0" opacity="0.6"/>
<line x1="339.1" y1="360.0" x2="319.6" y2="589.1" stroke="#d4af37" stroke-width="1.5" opacity="0.9"/>
<line x1="344.4" y1="359.0" x2="445.6" y2="565.5" stroke="#8a7a4a" stroke-width="1.0" opacity="0.6"/>
<line x1="348.3" y1="355.5" x2="540.1" y2="482.6" stroke="#8a7a4a" stroke-width="1.0" opacity="0.6"/>
<line x1="350.0" y1="350.8" x2="579.2" y2="370.2" stroke="#d4af37" stroke-width="1.5" opacity="0.9"/>
<line x1="349.2" y1="346.0" x2="560.0" y2="254.0" stroke="#8a7a4a" stroke-width="1.0" opacity="0.6"/>
<line x1="345.9" y1="341.9" x2="481.0" y2="155.8" stroke="#8a7a4a" stroke-width="1.0" opacity="0.6"/>
<line x1="340.9" y1="340.0" x2="360.4" y2="110.9" stroke="#d4af37" stroke-width="1.5" opacity="0.9"/>
<line x1="335.6" y1="341.0" x2="234.4" y2="134.5" stroke="#8a7a4a" stroke-width="1.0" opacity="0.6"/>
<line x1="331.7" y1="344.5" x2="139.9" y2="217.4" stroke="#8a7a4a" stroke-width="1.0" opacity="0.6"/>
<circle cx="340" cy="350" r="240" fill="none" stroke="#3a3020" stroke-width="0.5" opacity="0.5"/>
<circle cx="340" cy="350" r="140" fill="none" stroke="#3a3020" stroke-width="0.5" opacity="0.5"/>
<text x="152.5" y="380.9" text-anchor="middle" dominant-baseline="central" fill="#8a7a5a" font-size="10" opacity="0.5">1</text>
<text x="191.9" y="469.0" text-anchor="middle" dominant-baseline="central" fill="#8a7a5a" font-size="10" opacity="0.5">2</text>
<text x="273.7" y="528.0" text-anchor="middle" dominant-baseline="central" fill="#8a7a5a" font-size="10" opacity="0.5">3</text>
<text x="375.0" y="536.7" text-anchor="middle" dominant-baseline="central" fill="#8a7a5a" font-size="10" opacity="0.5">4</text>
<text x="465.4" y="492.8" text-anchor="middle" dominant-baseline="central" fill="#8a7a5a" font-size="10" opacity="0.5">5</text>
<text x="519.5" y="412.4" text-anchor="middle" dominant-baseline="central" fill="#8a7a5a" font-size="10" opacity="0.5">6</text>
<text x="527.5" y="319.1" text-anchor="middle" dominant-baseline="central" fill="#8a7a5a" font-size="10" opacity="0.5">7</text>
<text x="488.1" y="231.0" text-anchor="middle" dominant-baseline="central" fill="#8a7a5a" font-size="10" opacity="0.5">8</text>
<text x="406.3" y="172.0" text-anchor="middle" dominant-baseline="central" fill="#8a7a5a" font-size="10" opacity="0.5">9</text>
<text x="305.0" y="163.3" text-anchor="middle" dominant-baseline="central" fill="#8a7a5a" font-size="10" opacity="0.5">10</text>
<text x="214.6" y="207.2" text-anchor="middle" dominant-baseline="central" fill="#8a7a5a" font-size="10" opacity="0.5">11</text>
<text x="160.5" y="287.6" text-anchor="middle" dominant-baseline="central" fill="#8a7a5a" font-size="10" opacity="0.5">12</text>
<line x1="486.5" y1="400.7" x2="362.0" y2="503.4" stroke="#c9a84c" stroke-width="0.5" opacity="0.25" stroke-dasharray="2,3"/>
<line x1="486.5" y1="400.7" x2="376.8" y2="500.6" stroke="#c9a84c" stroke-width="0.5" opacity="0.25" stroke-dasharray="2,3"/>
<line x1="442.9" y1="234.1" x2="297.8" y2="200.9" stroke="#c9a84c" stroke-width="0.5" opacity="0.25" stroke-dasharray="2,3"/>
<line x1="442.9" y1="234.1" x2="231.2" y2="460.4" stroke="#e07060" stroke-width="0.8" opacity="0.35" stroke-dasharray="2,3"/>
<line x1="442.9" y1="234.1" x2="297.2" y2="201.0" stroke="#c9a84c" stroke-width="0.5" opacity="0.25" stroke-dasharray="2,3"/>
<line x1="492.3" y1="321.0" x2="362.0" y2="503.4" stroke="#e07060" stroke-width="0.8" opacity="0.35" stroke-dasharray="2,3"/>
<line x1="492.3" y1="321.0" x2="376.8" y2="500.6" stroke="#e07060" stroke-width="0.8" opacity="0.35" stroke-dasharray="2,3"/>
<line x1="297.8" y1="200.9" x2="376.8" y2="500.6" stroke="#e07060" stroke-width="0.8" opacity="0.35" stroke-dasharray="2,3"/>
<line x1="297.8" y1="200.9" x2="231.2" y2="460.4" stroke="#c9a84c" stroke-width="0.5" opacity="0.25" stroke-dasharray="2,3"/>
<line x1="297.8" y1="200.9" x2="297.2" y2="201.0" stroke="#d4af37" stroke-width="0.8" opacity="0.35" stroke-dasharray="2,3"/>
<line x1="376.8" y1="500.6" x2="231.2" y2="460.4" stroke="#c9a84c" stroke-width="0.5" opacity="0.25" stroke-dasharray="2,3"/>
<line x1="376.8" y1="500.6" x2="297.2" y2="201.0" stroke="#e07060" stroke-width="0.8" opacity="0.35" stroke-dasharray="2,3"/>
<line x1="231.2" y1="460.4" x2="297.2" y2="201.0" stroke="#c9a84c" stroke-width="0.5" opacity="0.25" stroke-dasharray="2,3"/>
<line x1="482.4" y1="322.8" x2="502.1" y2="319.1" stroke="#3a3020" stroke-width="0.5" opacity="0.4"/>
<text x="502.1" y="319.1" text-anchor="middle" dominant-baseline="central" fill="#e8dcc8" font-size="18" filter="url(#glow)">♂</text>
<text x="480.5" y="323.2" text-anchor="middle" dominant-baseline="central" fill="#8a7a5a" font-size="8" opacity="0.6">10°</text>
<line x1="436.3" y1="241.6" x2="449.6" y2="226.6" stroke="#3a3020" stroke-width="0.5" opacity="0.4"/>
<text x="449.6" y="226.6" text-anchor="middle" dominant-baseline="central" fill="#e8dcc8" font-size="18" filter="url(#glow)">♀</text>
<text x="435.0" y="243.1" text-anchor="middle" dominant-baseline="central" fill="#8a7a5a" font-size="8" opacity="0.6">18°</text>
<line x1="401.0" y1="218.5" x2="409.4" y2="200.3" stroke="#3a3020" stroke-width="0.5" opacity="0.4"/>
<text x="409.4" y="200.3" text-anchor="middle" dominant-baseline="central" fill="#e8dcc8" font-size="18" filter="url(#glow)">☿</text>
<text x="400.2" y="220.3" text-anchor="middle" dominant-baseline="central" fill="#8a7a5a" font-size="8" opacity="0.6">5°</text>
<line x1="355.6" y1="205.8" x2="357.8" y2="186.0" stroke="#3a3020" stroke-width="0.5" opacity="0.4"/>
<text x="357.8" y="186.0" text-anchor="middle" dominant-baseline="central" fill="#e8dcc8" font-size="18" filter="url(#glow)">☉</text>
<text x="355.4" y="207.8" text-anchor="middle" dominant-baseline="central" fill="#8a7a5a" font-size="8" opacity="0.6">23°</text>
<line x1="291.1" y1="213.5" x2="281.6" y2="187.1" stroke="#3a3020" stroke-width="0.5" opacity="0.4"/>
<text x="281.6" y="187.1" text-anchor="middle" dominant-baseline="central" fill="#e8dcc8" font-size="18" filter="url(#glow)">♃</text>
<text x="289.1" y="207.8" text-anchor="middle" dominant-baseline="central" fill="#8a7a5a" font-size="8" opacity="0.6">15°</text>
<line x1="309.5" y1="208.2" x2="306.4" y2="193.6" stroke="#3a3020" stroke-width="0.5" opacity="0.4"/>
<text x="306.4" y="193.6" text-anchor="middle" dominant-baseline="central" fill="#e8dcc8" font-size="18" filter="url(#glow)">⚷</text>
<text x="311.0" y="215.1" text-anchor="middle" dominant-baseline="central" fill="#8a7a5a" font-size="8" opacity="0.6">16°</text>
<line x1="238.2" y1="453.3" x2="224.2" y2="467.5" stroke="#3a3020" stroke-width="0.5" opacity="0.4"/>
<text x="224.2" y="467.5" text-anchor="middle" dominant-baseline="central" fill="#e8dcc8" font-size="18" filter="url(#glow)">♇</text>
<text x="214.3" y="477.5" text-anchor="middle" dominant-baseline="central" fill="#e07060" font-size="8">℞</text>
<text x="239.6" y="451.8" text-anchor="middle" dominant-baseline="central" fill="#8a7a5a" font-size="8" opacity="0.6">15°</text>
<line x1="377.4" y1="490.1" x2="388.8" y2="532.6" stroke="#3a3020" stroke-width="0.5" opacity="0.4"/>
<text x="388.8" y="532.6" text-anchor="middle" dominant-baseline="central" fill="#e8dcc8" font-size="18" filter="url(#glow)">♅</text>
<text x="392.4" y="546.1" text-anchor="middle" dominant-baseline="central" fill="#e07060" font-size="8">℞</text>
<text x="383.1" y="511.3" text-anchor="middle" dominant-baseline="central" fill="#8a7a5a" font-size="8" opacity="0.6">8°</text>
<line x1="357.6" y1="493.9" x2="358.2" y2="498.9" stroke="#3a3020" stroke-width="0.5" opacity="0.4"/>
<text x="358.2" y="498.9" text-anchor="middle" dominant-baseline="central" fill="#e8dcc8" font-size="18" filter="url(#glow)">♆</text>
<text x="359.8" y="512.8" text-anchor="middle" dominant-baseline="central" fill="#e07060" font-size="8">℞</text>
<text x="355.5" y="477.1" text-anchor="middle" dominant-baseline="central" fill="#8a7a5a" font-size="8" opacity="0.6">13°</text>
<line x1="399.1" y1="482.4" x2="407.2" y2="500.7" stroke="#3a3020" stroke-width="0.5" opacity="0.4"/>
<text x="407.2" y="500.7" text-anchor="middle" dominant-baseline="central" fill="#e8dcc8" font-size="18" filter="url(#glow)">♄</text>
<text x="413.0" y="513.5" text-anchor="middle" dominant-baseline="central" fill="#e07060" font-size="8">℞</text>
<text x="398.3" y="480.6" text-anchor="middle" dominant-baseline="central" fill="#8a7a5a" font-size="8" opacity="0.6">24°</text>
<line x1="477.0" y1="397.4" x2="495.9" y2="403.9" stroke="#3a3020" stroke-width="0.5" opacity="0.4"/>
<text x="495.9" y="403.9" text-anchor="middle" dominant-baseline="central" fill="#e8dcc8" font-size="18" filter="url(#glow)">☽</text>
<text x="475.1" y="396.7" text-anchor="middle" dominant-baseline="central" fill="#8a7a5a" font-size="8" opacity="0.6">10°</text>
<circle cx="340" cy="350" r="135" fill="#0a0a0a" opacity="0.85"/>
<text x="340" y="330" text-anchor="middle" fill="#e8dcc8" font-size="14" font-weight="600">Test</text>
<text x="340" y="350" text-anchor="middle" fill="#8a7a5a" font-size="11">1990-06-15 12:00</text>
<text x="340" y="366" text-anchor="middle" fill="#8a7a5a" font-size="10">25.00°N, 121.50°E</text>
<text x="340" y="384" text-anchor="middle" fill="#d4af37" font-size="10">ASC Vir  MC Gem</text>
<text x="640" y="50" fill="#e8dcc8" font-size="14" font-weight="600">Planets</text>
<text x="655" y="70" text-anchor="middle" fill="#8a7a5a" font-size="9" font-weight="600"></text>
<text x="710" y="70" text-anchor="middle" fill="#8a7a5a" font-size="9" font-weight="600">Planet</text>
<text x="775" y="70" text-anchor="middle" fill="#8a7a5a" font-size="9" font-weight="600">Sign</text>
<text x="825" y="70" text-anchor="middle" fill="#8a7a5a" font-size="9" font-weight="600">Deg</text>
<text x="870" y="70" text-anchor="middle" fill="#8a7a5a" font-size="9" font-weight="600">H</text>
<line x1="640" y1="76" x2="890" y2="76" stroke="#3a3020" stroke-width="0.5"/>
<rect x="640" y="80" width="250" height="24" fill="#141208" opacity="0.3" rx="2"/>
<text x="655.0" y="90" text-anchor="middle" dominant-baseline="central" fill="#d4af37" font-size="14">☉</text>
<text x="674" y="90" dominant-baseline="central" fill="#e8dcc8" font-size="11">Sun</text>
<text x="775.0" y="90" text-anchor="middle" dominant-baseline="central" fill="#8a7a5a" font-size="10">Gem</text>
<text x="825.0" y="90" text-anchor="middle" dominant-baseline="central" fill="#8a7a5a" font-size="10">23°48'</text>
<text x="870.0" y="90" text-anchor="middle" dominant-baseline="central" fill="#8a7a5a" font-size="10">9</text>
<text x="655.0" y="114" text-anchor="middle" dominant-baseline="central" fill="#d4af37" font-size="14">☽</text>
<text x="674" y="114" dominant-baseline="central" fill="#e8dcc8" font-size="11">Moon</text>
<text x="775.0" y="114" text-anchor="middle" dominant-baseline="central" fill="#8a7a5a" font-size="10">Pis</text>
<text x="825.0" y="114" text-anchor="middle" dominant-baseline="central" fill="#8a7a5a" font-size="10">10°55'</text>
<text x="870.0" y="114" text-anchor="middle" dominant-baseline="central" fill="#8a7a5a" font-size="10">6</text>
<rect x="640" y="128" width="250" height="24" fill="#141208" opacity="0.3" rx="2"/>
<text x="655.0" y="138" text-anchor="middle" dominant-baseline="central" fill="#d4af37" font-size="14">☿</text>
<text x="674" y="138" dominant-baseline="central" fill="#e8dcc8" font-size="11">Mercury</text>
<text x="775.0" y="138" text-anchor="middle" dominant-baseline="central" fill="#8a7a5a" font-size="10">Gem</text>
<text x="825.0" y="138" text-anchor="middle" dominant-baseline="central" fill="#8a7a5a" font-size="10">5°07'</text>
<text x="870.0" y="138" text-anchor="middle" dominant-baseline="central" fill="#8a7a5a" font-size="10">9</text>
<text x="655.0" y="162" text-anchor="middle" dominant-baseline="central" fill="#d4af37" font-size="14">♀</text>
<text x="674" y="162" dominant-baseline="central" fill="#e8dcc8" font-size="11">Venus</text>
<text x="775.0" y="162" text-anchor="middle" dominant-baseline="central" fill="#8a7a5a" font-size="10">Tau</text>
<text x="825.0" y="162" text-anchor="middle" dominant-baseline="central" fill="#8a7a5a" font-size="10">18°23'</text>
<text x="870.0" y="162" text-anchor="middle" dominant-baseline="central" fill="#8a7a5a" font-size="10">8</text>
<rect x="640" y="176" width="250" height="24" fill="#141208" opacity="0.3" rx="2"/>
<text x="655.0" y="186" text-anchor="middle" dominant-baseline="central" fill="#d4af37" font-size="14">♂</text>
<text x="674" y="186" dominant-baseline="central" fill="#e8dcc8" font-size="11">Mars</text>
<text x="775.0" y="186" text-anchor="middle" dominant-baseline="central" fill="#8a7a5a" font-size="10">Ari</text>
<text x="825.0" y="186" text-anchor="middle" dominant-baseline="central" fill="#8a7a5a" font-size="10">10°48'</text>
<text x="870.0" y="186" text-anchor="middle" dominant-baseline="central" fill="#8a7a5a" font-size="10">7</text>
<text x="655.0" y="210" text-anchor="middle" dominant-baseline="central" fill="#d4af37" font-size="14">♃</text>
<text x="674" y="210" dominant-baseline="central" fill="#e8dcc8" font-size="11">Jupiter</text>
<text x="775.0" y="210" text-anchor="middle" dominant-baseline="central" fill="#8a7a5a" font-size="10">Can</text>
<text x="825.0" y="210" text-anchor="middle" dominant-baseline="central" fill="#8a7a5a" font-size="10">15°49'</text>
<text x="870.0" y="210" text-anchor="middle" dominant-baseline="central" fill="#8a7a5a" font-size="10">10</text>
<rect x="640" y="224" width="250" height="24" fill="#141208" opacity="0.3" rx="2"/>
<text x="655.0" y="234" text-anchor="middle" dominant-baseline="central" fill="#d4af37" font-size="14">♄</text>
<text x="674" y="234" dominant-baseline="central" fill="#e07060" font-size="11">Saturn ℞</text>
<text x="775.0" y="234" text-anchor="middle" dominant-baseline="central" fill="#8a7a5a" font-size="10">Cap</text>
<text x="825.0" y="234" text-anchor="middle" dominant-baseline="central" fill="#8a7a5a" font-size="10">24°03'</text>
<text x="870.0" y="234" text-anchor="middle" dominant-baseline="central" fill="#8a7a5a" font-size="10">4</text>
<text x="655.0" y="258" text-anchor="middle" dominant-baseline="central" fill="#d4af37" font-size="14">♅</text>
<text x="674" y="258" dominant-baseline="central" fill="#e07060" font-size="11">Uranus ℞</text>
<text x="775.0" y="258" text-anchor="middle" dominant-baseline="central" fill="#8a7a5a" font-size="10">Cap</text>
<text x="825.0" y="258" text-anchor="middle" dominant-baseline="central" fill="#8a7a5a" font-size="10">8°10'</text>
<text x="870.0" y="258" text-anchor="middle" dominant-baseline="central" fill="#8a7a5a" font-size="10">4</text>
<rect x="640" y="272" width="250" height="24" fill="#141208" opacity="0.3" rx="2"/>
<text x="655.0" y="282" text-anchor="middle" dominant-baseline="central" fill="#d4af37" font-size="14">♆</text>
<text x="674" y="282" dominant-baseline="central" fill="#e07060" font-size="11">Neptune ℞</text>
<text x="775.0" y="282" text-anchor="middle" dominant-baseline="central" fill="#8a7a5a" font-size="10">Cap</text>
<text x="825.0" y="282" text-anchor="middle" dominant-baseline="central" fill="#8a7a5a" font-size="10">13°43'</text>
<text x="870.0" y="282" text-anchor="middle" dominant-baseline="central" fill="#8a7a5a" font-size="10">4</text>
<text x="655.0" y="306" text-anchor="middle" dominant-baseline="central" fill="#d4af37" font-size="14">♇</text>
<text x="674" y="306" dominant-baseline="central" fill="#e07060" font-size="11">Pluto ℞</text>
<text x="775.0" y="306" text-anchor="middle" dominant-baseline="central" fill="#8a7a5a" font-size="10">Sco</text>
<text x="825.0" y="306" text-anchor="middle" dominant-baseline="central" fill="#8a7a5a" font-size="10">15°24'</text>
<text x="870.0" y="306" text-anchor="middle" dominant-baseline="central" fill="#8a7a5a" font-size="10">2</text>
<rect x="640" y="320" width="250" height="24" fill="#141208" opacity="0.3" rx="2"/>
<text x="655.0" y="330" text-anchor="middle" dominant-baseline="central" fill="#d4af37" font-size="14">⚷</text>
<text x="674" y="330" dominant-baseline="central" fill="#e8dcc8" font-size="11">Chiron</text>
<text x="775.0" y="330" text-anchor="middle" dominant-baseline="central" fill="#8a7a5a" font-size="10">Can</text>
<text x="825.0" y="330" text-anchor="middle" dominant-baseline="central" fill="#8a7a5a" font-size="10">16°01'</text>
<text x="870.0" y="330" text-anchor="middle" dominant-baseline="central" fill="#8a7a5a" font-size="10">10</text>
</svg>